<?xml version="1.0" encoding="iso-8859-1"?>
<!-- Uploaded to: SVG Repo, www.svgrepo.com, Generator: SVG Repo Mixer Tools -->
<svg height="800px" width="800px" version="1.1" id="Layer_1" xmlns="http://www.w3.org/2000/svg" xmlns:xlink="http://www.w3.org/1999/xlink" 
	 viewBox="0 0 512 512" xml:space="preserve">
<path style="fill:#D7EDF3;" d="M464.457,204.71c-3.014-64.752-23.121-120.797-59.834-167.05c2.196-3.431,3.486-7.495,3.486-11.862
	c0-12.179-9.908-22.087-22.087-22.087c-4.353,0-8.404,1.283-11.828,3.465l-6.005-4.186c-3.158-2.201-6.986-3.241-10.82-2.938
	L240.739,9.214c-9.164,0.72-16.178,8.732-15.46,17.896c0.344,4.383,2.979,8.22,5.198,10.967v27.234
	c0,5.418,3.077,10.496,7.507,13.613l34.656,24.067v16.141c-19.972,11.835-58.327,44.3-58.327,112.054
	c0,1.117-0.02,2.207,0.189,3.262c-5.554,0.484-11.198,0.738-16.777,0.738c-19.8,0-37.65,12.515-44.366,31.143l-21.403,59.326
	c-7.367,2.313-15.17,2.869-22.88,1.592l-18.81-3.113c-5.347-0.884-10.804,0.893-14.604,4.768c-3.799,3.875-5.472,9.359-4.479,14.694
	l6.678,35.934c4.154,22.288,23.637,38.465,46.326,38.465h241.657c7.198,0,13.31-4.577,15.632-10.972
	c3.216,3.918,7.98,6.076,12.863,6.076c2.831,0,5.699-0.722,8.324-2.242l28.109-16.274c4.526-2.62,7.557-7.214,8.184-12.407
	l2.392-19.791C453.62,324.544,467.355,266.961,464.457,204.71z"/>
<path style="fill:#F4FCFD;" d="M214.409,231.186c0,1.117-0.068,2.207,0.141,3.262c-5.554,0.484-11.222,0.738-16.801,0.738
	c-19.8,0-37.661,12.515-44.378,31.143l-21.409,59.327c-7.367,2.313-15.173,2.869-22.882,1.592l-18.813-3.113
	c-5.347-0.884-10.805,0.893-14.605,4.768c-3.799,3.875-5.472,9.359-4.479,14.694l6.678,35.934
	c4.154,22.288,23.637,38.465,46.326,38.465h139.577l0.07-292.875C242.753,140.421,214.409,172.62,214.409,231.186z"/>
<path style="fill:#D7EDF3;" d="M338.52,133.506c-9.192,0-16.643,7.452-16.643,16.643c0,24.438-13.321,46.533-34.765,57.661
	c-27.519,14.281-58.452,21.828-89.453,21.828c-19.8,0-37.615,12.515-44.332,31.143l-23.942,66.413
	c-3.118,8.647,1.365,18.185,10.013,21.301c1.865,0.672,3.769,0.991,5.643,0.991c6.817,0,13.213-4.221,15.658-11.003l23.941-66.413
	c1.973-5.47,7.204-9.146,13.018-9.146c36.315,0,72.55-8.842,104.785-25.57c32.519-16.874,52.72-50.291,52.72-87.206
	C355.164,140.957,347.712,133.506,338.52,133.506z"/>
<g>
	<path style="fill:#F4FCFD;" d="M230.478,38.077v27.234c0,5.418,3.138,10.496,7.568,13.613l25.718,17.818l-0.113-89.328l-22.912,1.8
		c-9.164,0.72-16.178,8.732-15.46,17.896C225.624,31.493,228.259,35.33,230.478,38.077z"/>
	<path style="fill:#F4FCFD;" d="M184.641,272.07L160.7,338.483c-2.445,6.783-8.842,11.004-15.658,11.004
		c-1.873,0-3.778-0.318-5.643-0.991c-8.648-3.117-13.131-12.655-10.013-21.301l0.325-0.902c-6.696,1.759-13.701,2.105-20.63,0.956
		l-18.813-3.113c-5.347-0.884-10.805,0.893-14.605,4.768c-3.799,3.875-5.472,9.359-4.479,14.694l6.678,35.934
		c4.154,22.288,23.637,38.465,46.326,38.465h139.577l0.039-164.938c-21.407,6.495-43.759,9.867-66.144,9.867
		C191.845,262.925,186.614,266.6,184.641,272.07z"/>
	<path style="fill:#F4FCFD;" d="M338.52,133.506c-9.192,0-16.643,7.452-16.643,16.643c0,24.438-13.321,46.533-34.765,57.661
		c-7.532,3.908-15.326,7.293-23.301,10.177l-0.008,35.072c13.32-4.042,26.277-9.287,38.64-15.704
		c32.519-16.874,52.72-50.291,52.72-87.206C355.164,140.957,347.712,133.506,338.52,133.506z"/>
</g>
<path style="fill:#91C0F1;" d="M63.791,492.337c-4.644,0-9.075-1.939-12.225-5.349c-3.151-3.41-4.734-7.981-4.367-12.609
	l1.714-21.623c0.028-0.361,0.07-0.72,0.121-1.077c3.18-21.892,14.127-41.964,30.822-56.518c16.76-14.61,38.169-22.655,60.285-22.655
	H371.38c22.116,0,43.526,8.045,60.286,22.655c16.697,14.554,27.642,34.626,30.822,56.518c0.052,0.358,0.093,0.717,0.121,1.077
	l1.714,21.623c0.367,4.628-1.216,9.199-4.367,12.609c-3.15,3.411-7.582,5.349-12.225,5.349"/>
<path style="fill:#D7EDF3;" d="M263.765,492.337V372.504H140.142c-22.116,0-43.525,8.045-60.285,22.655
	c-16.696,14.554-27.642,34.626-30.822,56.518c-0.052,0.357-0.093,0.717-0.121,1.077L47.2,474.377
	c-0.367,4.628,1.216,9.199,4.367,12.609c3.15,3.411,7.652,5.349,12.294,5.349"/>
<path style="fill:#007AB7;" d="M491.502,512c-16.704,0-32.977-6.292-47.105-17.998C430.272,505.708,414.002,512,397.298,512
	s-32.976-6.293-47.105-17.998C336.068,505.708,319.798,512,303.095,512c-16.7,0-32.969-6.29-47.096-17.99
	c-14.127,11.7-30.398,17.99-47.096,17.99c-16.703,0-32.976-6.293-47.105-17.998C147.674,505.708,131.403,512,114.7,512
	s-32.977-6.292-47.105-17.998C53.47,505.708,37.199,512,20.496,512c-9.192,0-16.643-7.452-16.643-16.643
	c0-9.192,7.452-16.643,16.643-16.643c15.356,0,27.143-10.245,34.328-18.838c3.162-3.782,7.837-5.968,12.767-5.968
	s9.607,2.185,12.769,5.966c7.189,8.595,18.981,18.84,34.341,18.84c15.356,0,27.142-10.243,34.326-18.838
	c3.162-3.782,7.837-5.968,12.768-5.968c4.929,0,9.605,2.184,12.769,5.965c7.189,8.596,18.982,18.841,34.341,18.841
	c15.354,0,27.144-10.24,34.332-18.83c3.162-3.779,7.837-5.963,12.764-5.963s9.602,2.184,12.764,5.963
	c7.189,8.59,18.979,18.83,34.332,18.83c15.355,0,27.142-10.245,34.328-18.838c3.161-3.782,7.837-5.968,12.767-5.968
	c4.93,0,9.605,2.184,12.769,5.965c7.189,8.596,18.982,18.841,34.341,18.841c15.355,0,27.143-10.245,34.328-18.838
	c3.162-3.782,7.837-5.968,12.767-5.968s9.607,2.185,12.769,5.966c7.189,8.595,18.981,18.84,34.341,18.84
	c9.192,0,16.643,7.452,16.643,16.643S500.694,512,491.502,512z"/>
<path style="fill:#0EABD9;" d="M263.768,499.76c-2.652-1.741-5.245-3.658-7.769-5.75c-14.127,11.7-30.398,17.99-47.096,17.99
	c-16.703,0-32.976-6.293-47.105-17.998C147.674,505.708,131.403,512,114.7,512s-32.977-6.292-47.105-17.998
	C53.47,505.708,37.199,512,20.496,512c-9.192,0-16.643-7.452-16.643-16.643c0-9.192,7.452-16.643,16.643-16.643
	c15.356,0,27.143-10.245,34.328-18.838c3.162-3.783,7.837-5.968,12.767-5.968s9.607,2.185,12.769,5.966
	c7.189,8.595,18.981,18.84,34.341,18.84c15.356,0,27.142-10.243,34.326-18.838c3.162-3.782,7.837-5.968,12.768-5.968
	c4.929,0,9.605,2.184,12.769,5.965c7.189,8.596,18.982,18.841,34.341,18.841c15.354,0,27.144-10.24,34.332-18.83
	c3.162-3.779,7.837-5.963,12.764-5.963c2.738,0,5.398,0.675,7.764,1.922L263.768,499.76z"/>
<path style="fill:#F4FCFD;" d="M307.038,15.226c7.753,0,14.249-5.309,16.099-12.485l-31.365,2.464
	C294.333,11.099,300.201,15.226,307.038,15.226z"/>
</svg>